<mxfile host="app.diagrams.net" agent="Mozilla/5.0 (Windows NT 10.0; Win64; x64) AppleWebKit/537.36 (KHTML, like Gecko) Chrome/136.0.0.0 Safari/537.36" version="27.0.9">
  <diagram name="PÃ¡gina-1" id="-5Rs4zn1oJ7eibma2WxG">
    <mxGraphModel dx="751" dy="472" grid="1" gridSize="10" guides="1" tooltips="1" connect="1" arrows="1" fold="1" page="1" pageScale="1" pageWidth="827" pageHeight="1169" math="0" shadow="0">
      <root>
        <mxCell id="0" />
        <mxCell id="1" parent="0" />
        <mxCell id="PF3xhG9BRKsiFV38pTiD-15" style="edgeStyle=orthogonalEdgeStyle;rounded=1;orthogonalLoop=1;jettySize=auto;html=1;entryX=0;entryY=0.5;entryDx=0;entryDy=0;curved=0;" edge="1" parent="1" source="PF3xhG9BRKsiFV38pTiD-1" target="PF3xhG9BRKsiFV38pTiD-10">
          <mxGeometry relative="1" as="geometry" />
        </mxCell>
        <mxCell id="PF3xhG9BRKsiFV38pTiD-16" style="edgeStyle=orthogonalEdgeStyle;rounded=1;orthogonalLoop=1;jettySize=auto;html=1;entryX=0;entryY=0.5;entryDx=0;entryDy=0;strokeColor=default;curved=0;" edge="1" parent="1" source="PF3xhG9BRKsiFV38pTiD-1" target="PF3xhG9BRKsiFV38pTiD-11">
          <mxGeometry relative="1" as="geometry" />
        </mxCell>
        <mxCell id="PF3xhG9BRKsiFV38pTiD-31" style="edgeStyle=orthogonalEdgeStyle;rounded=1;orthogonalLoop=1;jettySize=auto;html=1;entryX=0;entryY=0.5;entryDx=0;entryDy=0;curved=0;" edge="1" parent="1" source="PF3xhG9BRKsiFV38pTiD-1" target="PF3xhG9BRKsiFV38pTiD-5">
          <mxGeometry relative="1" as="geometry">
            <Array as="points">
              <mxPoint x="155" y="160" />
              <mxPoint x="155" y="235" />
            </Array>
          </mxGeometry>
        </mxCell>
        <mxCell id="PF3xhG9BRKsiFV38pTiD-43" style="edgeStyle=orthogonalEdgeStyle;rounded=1;orthogonalLoop=1;jettySize=auto;html=1;entryX=0;entryY=0.5;entryDx=0;entryDy=0;curved=0;" edge="1" parent="1" source="PF3xhG9BRKsiFV38pTiD-1" target="PF3xhG9BRKsiFV38pTiD-42">
          <mxGeometry relative="1" as="geometry" />
        </mxCell>
        <mxCell id="PF3xhG9BRKsiFV38pTiD-1" value="Operator&lt;div&gt;&lt;br&gt;&lt;/div&gt;" style="shape=umlActor;verticalLabelPosition=bottom;verticalAlign=top;html=1;outlineConnect=0;" vertex="1" parent="1">
          <mxGeometry x="40" y="130" width="30" height="60" as="geometry" />
        </mxCell>
        <mxCell id="PF3xhG9BRKsiFV38pTiD-18" style="edgeStyle=orthogonalEdgeStyle;rounded=1;orthogonalLoop=1;jettySize=auto;html=1;entryX=0;entryY=0.5;entryDx=0;entryDy=0;curved=0;" edge="1" parent="1" source="PF3xhG9BRKsiFV38pTiD-4" target="PF3xhG9BRKsiFV38pTiD-8">
          <mxGeometry relative="1" as="geometry" />
        </mxCell>
        <mxCell id="PF3xhG9BRKsiFV38pTiD-19" style="edgeStyle=orthogonalEdgeStyle;rounded=1;orthogonalLoop=1;jettySize=auto;html=1;entryX=0;entryY=0.5;entryDx=0;entryDy=0;curved=0;" edge="1" parent="1" source="PF3xhG9BRKsiFV38pTiD-4" target="PF3xhG9BRKsiFV38pTiD-12">
          <mxGeometry relative="1" as="geometry" />
        </mxCell>
        <mxCell id="PF3xhG9BRKsiFV38pTiD-20" style="edgeStyle=orthogonalEdgeStyle;rounded=1;orthogonalLoop=1;jettySize=auto;html=1;entryX=0;entryY=0.5;entryDx=0;entryDy=0;curved=0;" edge="1" parent="1" source="PF3xhG9BRKsiFV38pTiD-4" target="PF3xhG9BRKsiFV38pTiD-13">
          <mxGeometry relative="1" as="geometry" />
        </mxCell>
        <mxCell id="PF3xhG9BRKsiFV38pTiD-21" style="edgeStyle=orthogonalEdgeStyle;rounded=1;orthogonalLoop=1;jettySize=auto;html=1;entryX=0;entryY=0.5;entryDx=0;entryDy=0;curved=0;" edge="1" parent="1" source="PF3xhG9BRKsiFV38pTiD-4" target="PF3xhG9BRKsiFV38pTiD-14">
          <mxGeometry relative="1" as="geometry" />
        </mxCell>
        <mxCell id="PF3xhG9BRKsiFV38pTiD-44" style="edgeStyle=orthogonalEdgeStyle;rounded=1;orthogonalLoop=1;jettySize=auto;html=1;entryX=0;entryY=0.5;entryDx=0;entryDy=0;curved=0;" edge="1" parent="1" source="PF3xhG9BRKsiFV38pTiD-4" target="PF3xhG9BRKsiFV38pTiD-42">
          <mxGeometry relative="1" as="geometry" />
        </mxCell>
        <mxCell id="PF3xhG9BRKsiFV38pTiD-50" style="edgeStyle=orthogonalEdgeStyle;rounded=1;orthogonalLoop=1;jettySize=auto;html=1;entryX=0;entryY=0.5;entryDx=0;entryDy=0;curved=0;" edge="1" parent="1" source="PF3xhG9BRKsiFV38pTiD-4" target="PF3xhG9BRKsiFV38pTiD-49">
          <mxGeometry relative="1" as="geometry" />
        </mxCell>
        <mxCell id="PF3xhG9BRKsiFV38pTiD-4" value="MCU" style="shape=umlActor;verticalLabelPosition=bottom;verticalAlign=top;html=1;outlineConnect=0;" vertex="1" parent="1">
          <mxGeometry x="40" y="475" width="30" height="60" as="geometry" />
        </mxCell>
        <mxCell id="PF3xhG9BRKsiFV38pTiD-5" value="03.&amp;nbsp;Arm UAV" style="ellipse;whiteSpace=wrap;html=1;" vertex="1" parent="1">
          <mxGeometry x="200" y="210" width="130" height="50" as="geometry" />
        </mxCell>
        <mxCell id="PF3xhG9BRKsiFV38pTiD-46" style="edgeStyle=orthogonalEdgeStyle;rounded=0;orthogonalLoop=1;jettySize=auto;html=1;entryX=1;entryY=0.5;entryDx=0;entryDy=0;curved=1;dashed=1;exitX=1;exitY=0.5;exitDx=0;exitDy=0;" edge="1" parent="1" source="PF3xhG9BRKsiFV38pTiD-8" target="PF3xhG9BRKsiFV38pTiD-5">
          <mxGeometry relative="1" as="geometry">
            <Array as="points">
              <mxPoint x="410" y="535" />
              <mxPoint x="410" y="235" />
            </Array>
          </mxGeometry>
        </mxCell>
        <mxCell id="PF3xhG9BRKsiFV38pTiD-48" value="&amp;lt;Prerequisite&amp;gt;" style="edgeLabel;html=1;align=center;verticalAlign=middle;resizable=0;points=[];" vertex="1" connectable="0" parent="PF3xhG9BRKsiFV38pTiD-46">
          <mxGeometry x="0.027" relative="1" as="geometry">
            <mxPoint x="20" as="offset" />
          </mxGeometry>
        </mxCell>
        <mxCell id="PF3xhG9BRKsiFV38pTiD-8" value="06.&amp;nbsp;Control UAV" style="ellipse;whiteSpace=wrap;html=1;" vertex="1" parent="1">
          <mxGeometry x="200" y="510" width="130" height="50" as="geometry" />
        </mxCell>
        <mxCell id="PF3xhG9BRKsiFV38pTiD-10" value="01. Get UAV Data" style="ellipse;whiteSpace=wrap;html=1;" vertex="1" parent="1">
          <mxGeometry x="200" y="60" width="130" height="50" as="geometry" />
        </mxCell>
        <mxCell id="PF3xhG9BRKsiFV38pTiD-32" style="edgeStyle=orthogonalEdgeStyle;rounded=0;orthogonalLoop=1;jettySize=auto;html=1;entryX=1;entryY=0.5;entryDx=0;entryDy=0;exitX=1;exitY=0.5;exitDx=0;exitDy=0;dashed=1;curved=1;" edge="1" parent="1" source="PF3xhG9BRKsiFV38pTiD-11" target="PF3xhG9BRKsiFV38pTiD-5">
          <mxGeometry relative="1" as="geometry" />
        </mxCell>
        <mxCell id="PF3xhG9BRKsiFV38pTiD-33" value="&amp;lt;Prerequisite&amp;gt;" style="edgeLabel;html=1;align=center;verticalAlign=middle;resizable=0;points=[];" vertex="1" connectable="0" parent="PF3xhG9BRKsiFV38pTiD-32">
          <mxGeometry x="-0.0118" y="2" relative="1" as="geometry">
            <mxPoint as="offset" />
          </mxGeometry>
        </mxCell>
        <mxCell id="PF3xhG9BRKsiFV38pTiD-11" value="02.&amp;nbsp;Set UAV behavior" style="ellipse;whiteSpace=wrap;html=1;" vertex="1" parent="1">
          <mxGeometry x="200" y="135" width="130" height="50" as="geometry" />
        </mxCell>
        <mxCell id="PF3xhG9BRKsiFV38pTiD-12" value="07.&amp;nbsp;Send UAV Data" style="ellipse;whiteSpace=wrap;html=1;" vertex="1" parent="1">
          <mxGeometry x="200" y="580" width="130" height="50" as="geometry" />
        </mxCell>
        <mxCell id="PF3xhG9BRKsiFV38pTiD-13" value="08.&amp;nbsp;Get distance info" style="ellipse;whiteSpace=wrap;html=1;" vertex="1" parent="1">
          <mxGeometry x="200" y="650" width="130" height="50" as="geometry" />
        </mxCell>
        <mxCell id="PF3xhG9BRKsiFV38pTiD-14" value="09.&amp;nbsp;Get orientation info" style="ellipse;whiteSpace=wrap;html=1;" vertex="1" parent="1">
          <mxGeometry x="200" y="720" width="130" height="50" as="geometry" />
        </mxCell>
        <mxCell id="PF3xhG9BRKsiFV38pTiD-42" value="04. Disarm UAV" style="ellipse;whiteSpace=wrap;html=1;" vertex="1" parent="1">
          <mxGeometry x="200" y="320" width="130" height="50" as="geometry" />
        </mxCell>
        <mxCell id="PF3xhG9BRKsiFV38pTiD-49" value="05. Check UAV status" style="ellipse;whiteSpace=wrap;html=1;" vertex="1" parent="1">
          <mxGeometry x="200" y="440" width="130" height="50" as="geometry" />
        </mxCell>
      </root>
    </mxGraphModel>
  </diagram>
</mxfile>
